<svg version="1.1" id="Layer_1" xmlns="http://www.w3.org/2000/svg" xmlns:xlink="http://www.w3.org/1999/xlink" x="0px" y="0px" width="36px" height="44px" viewBox="0 0 36 44" enable-background="new 0 0 36 44" xml:space="preserve"><g><g><path fill="#333333" d="M24.7,31.6c-0.2,0-0.4,0-0.6-0.1c-1.1-0.3-1.7-1.4-1.4-2.5c0.1-0.4,2.8-10.4-4.7-19.4 C11.7,2.1,2.6,4.3,2.5,4.3C1.4,4.6,0.3,4,0.1,2.9c-0.3-1.1,0.4-2.2,1.4-2.4C2,0.3,13.1-2.4,21.2,7.2c8.9,10.6,5.6,22.5,5.4,23 C26.3,31.1,25.5,31.6,24.7,31.6z"/></g><g><polygon fill="#333333" points="13.6,27.2 36,27.2 25.2,44 "/></g></g></svg>